<svg xmlns="http://www.w3.org/2000/svg" viewBox="0 0 50 31.21"><defs><style>.cls-1{fill:#fff;}.cls-2{fill:#58574b;fill-rule:evenodd;}</style></defs><title>ahd-logo</title><g id="Layer_2" data-name="Layer 2"><g id="Layer_1-2" data-name="Layer 1"><rect class="cls-1" x="3.71" y="6.61" width="40.42" height="17.42"/><path class="cls-2" d="M0,27.45V3.9A1.89,1.89,0,0,1,1.57,2,140.27,140.27,0,0,1,25,0h0a147.11,147.11,0,0,1,23.4,2A1.91,1.91,0,0,1,50,3.9V27.46a1.94,1.94,0,0,1-1.6,1.87A148.63,148.63,0,0,1,25,31.21h0a181,181,0,0,1-23.4-1.89A1.94,1.94,0,0,1,0,27.45ZM27.3,14.37H23.48V9.71H20.36V21.16h3.12V16.43H27.3v4.73h3.11V9.71H27.3v4.66Zm-15-5a5.62,5.62,0,0,0-5,2.77v9h3.13V17.35h3.7v3.81h3.12v-9a5.48,5.48,0,0,0-5-2.77Zm1.85,5.91V12.15s-.31-.33-1.85-.33a3.34,3.34,0,0,0-1.85.33v3.14ZM39.54,9.71h-6V21.16h6s4.05-1.63,4.05-5.76-4.05-5.69-4.05-5.69Zm-.35,9.38h0s1.2-.81,1.2-3.69c0-2.66-1.2-3.58-1.2-3.58H36.65v7.27Z"/></g></g></svg>