<?xml version="1.0" standalone="no"?>
<!DOCTYPE svg PUBLIC "-//W3C//DTD SVG 20010904//EN"
 "http://www.w3.org/TR/2001/REC-SVG-20010904/DTD/svg10.dtd">
<svg version="1.0" xmlns="http://www.w3.org/2000/svg"
 width="300.000000pt" height="300.000000pt" viewBox="0 0 300.000000 300.000000"
 preserveAspectRatio="xMidYMid meet">
<metadata>
Created by potrace 1.11, written by Peter Selinger 2001-2013
</metadata>
<g transform="translate(0.000000,300.000000) scale(0.100000,-0.100000)"
fill="#000000" stroke="none">
<path d="M1075 2429 c-277 -15 -584 -47 -899 -95 -101 -16 -114 -20 -143 -50
l-33 -32 0 -741 c0 -811 -2 -784 58 -815 43 -22 484 -73 932 -108 213 -16 875
-16 1090 0 378 29 815 84 862 108 61 31 59 3 56 819 l-3 745 -26 26 c-22 21
-45 29 -135 44 -528 90 -1214 128 -1759 99z m-201 -579 c38 -15 73 -38 106
-71 l50 -50 0 -279 0 -280 -90 0 -90 0 0 115 0 115 -110 0 -109 0 -3 -112 -3
-113 -92 -3 -93 -3 0 276 0 275 42 46 c44 48 111 88 175 104 54 13 150 4 217
-20z m536 -130 l0 -140 115 0 115 0 0 140 0 140 90 0 90 0 0 -345 0 -345 -90
0 -90 0 0 145 0 145 -115 0 -114 0 -3 -142 -3 -143 -90 0 -90 0 -3 343 -2 342
95 0 95 0 0 -140z m1027 101 c111 -72 173 -176 174 -295 1 -114 -31 -186 -119
-267 -94 -87 -103 -90 -304 -87 l-173 3 -3 343 -2 342 183 0 184 0 60 -39z"/>
<path d="M648 1723 c-16 -4 -18 -18 -18 -104 l0 -99 110 0 110 0 0 99 c0 94
-1 99 -22 105 -26 7 -154 6 -180 -1z"/>
<path d="M2200 1515 l0 -215 79 0 c73 0 81 2 100 26 50 63 56 271 10 354 l-24
45 -83 3 -82 3 0 -216z"/>
</g>
</svg>
